<?xml version="1.0" encoding="UTF-8" standalone="no"?>
<!DOCTYPE svg PUBLIC "-//W3C//DTD SVG 1.1//EN" "http://www.w3.org/Graphics/SVG/1.1/DTD/svg11.dtd">
<svg xmlns="http://www.w3.org/2000/svg" version="1.1" viewBox="0.00 0.00 1024.00 1024.00">
<g stroke-width="2.00" fill="none" stroke-linecap="butt">
<path stroke="#a6917e" vector-effect="non-scaling-stroke" d="
  M 337.01 358.26
  L 337.86 358.36"
/>
<path stroke="#888887" vector-effect="non-scaling-stroke" d="
  M 337.86 358.36
  C 358.54 438.37 378.22 519.61 392.75 575.04
  C 394.26 580.80 397.60 586.59 404.19 586.71
  C 411.89 586.86 415.51 580.52 417.47 573.95
  Q 440.29 497.25 463.16 420.59"
/>
<path stroke="#a6917e" vector-effect="non-scaling-stroke" d="
  M 463.16 420.59
  Q 463.93 420.58 464.36 421.99
  Q 464.69 423.07 464.80 423.38
  Q 470.49 438.78 477.77 457.99
  Q 480.82 466.02 482.94 469.55
  C 489.91 481.18 502.01 481.20 514.07 481.20
  Q 588.97 481.19 627.40 481.20
  Q 632.27 481.20 634.24 480.55
  C 640.35 478.54 643.28 472.31 641.34 466.18
  C 638.88 458.40 634.10 458.87 626.05 458.87
  Q 598.15 458.89 510.25 458.87
  Q 508.46 458.87 504.73 457.76
  A 2.53 2.52 -7.2 0 1 503.31 456.66
  Q 501.09 453.05 499.87 449.58
  Q 490.97 424.37 481.95 399.17"
/>
<path stroke="#888887" vector-effect="non-scaling-stroke" d="
  M 481.95 399.17
  C 478.94 390.67 476.03 379.61 466.12 376.76
  C 458.31 374.52 451.10 378.99 448.06 386.37
  Q 447.48 387.77 445.90 393.10
  Q 421.17 476.53 408.57 519.06
  Q 407.48 522.74 406.59 526.45"
/>
<path stroke="#a6917e" vector-effect="non-scaling-stroke" d="
  M 406.59 526.45
  Q 406.25 527.82 405.57 527.50
  A 0.45 0.44 -84.3 0 1 405.34 527.21
  L 401.01 509.44"
/>
<path stroke="#888887" vector-effect="non-scaling-stroke" d="
  M 401.01 509.44
  Q 376.02 409.00 351.18 308.51
  C 349.36 301.15 345.76 293.83 337.13 293.86
  C 328.71 293.89 325.21 300.03 323.47 307.27
  Q 304.81 384.65 293.54 426.54
  Q 271.36 508.99 266.32 527.71
  A 0.46 0.46 0.0 0 1 265.43 527.73
  Q 245.42 463.78 225.39 398.39
  C 222.60 389.28 218.35 381.16 207.52 380.98
  Q 195.63 380.78 192.53 381.31
  Q 183.45 382.86 186.30 391.69
  Q 211.77 470.41 244.48 571.78
  C 246.71 578.68 251.20 584.78 258.74 586.17
  C 268.32 587.93 275.31 583.47 279.00 574.90
  Q 281.32 569.53 282.06 566.76
  Q 309.07 466.78 336.73 360.76
  Q 337.04 359.57 337.01 358.26"
/>
<path stroke="#382311" vector-effect="non-scaling-stroke" d="
  M 401.01 509.44
  Q 399.97 509.51 399.84 509.01
  Q 391.53 475.26 389.75 469.20
  Q 388.96 466.49 388.32 463.74
  Q 386.01 453.83 385.31 451.01
  Q 382.92 441.38 372.57 399.23
  C 372.25 397.95 371.59 396.51 371.36 395.46
  Q 367.60 378.52 366.45 374.03
  C 366.04 372.45 365.40 371.05 365.03 369.51
  Q 359.56 347.25 359.02 344.80
  Q 358.00 340.22 356.98 336.64
  Q 355.82 332.63 354.94 328.47
  Q 354.92 328.42 354.11 325.40
  Q 353.75 324.11 353.40 322.32
  Q 350.91 309.55 348.12 302.92
  Q 344.66 294.66 336.30 294.95
  Q 330.64 295.15 327.85 299.80
  Q 325.72 303.36 325.08 306.06
  Q 324.42 308.79 316.72 340.42
  Q 315.25 346.45 313.54 352.57
  Q 311.82 358.75 310.65 364.79
  C 309.41 371.23 307.34 377.51 305.49 384.94
  Q 301.66 400.30 301.65 400.33
  Q 300.87 404.33 297.03 417.25
  C 295.25 423.26 294.36 428.43 292.83 434.57
  A 1.12 1.11 33.5 0 0 293.03 435.52
  Q 300.91 445.89 310.19 453.96
  A 0.35 0.35 0.0 0 0 310.76 453.80
  Q 311.91 450.05 316.63 432.62
  Q 328.15 390.02 330.42 380.27
  Q 331.36 376.27 331.47 375.85
  Q 332.03 373.82 336.27 358.59
  Q 336.34 358.31 336.55 358.20
  Q 336.80 358.06 337.01 358.26"
/>
<path stroke="#382311" vector-effect="non-scaling-stroke" d="
  M 406.59 526.45
  Q 407.59 526.90 407.98 525.32
  Q 409.84 517.74 413.00 509.06
  Q 413.77 506.96 414.79 502.41
  C 416.26 495.89 417.58 492.60 420.32 483.74
  Q 422.55 476.55 423.83 471.67
  C 426.18 462.73 428.76 456.23 430.98 447.64
  Q 432.18 442.98 434.16 436.82
  C 437.55 426.28 439.48 418.69 443.02 406.99
  Q 444.74 401.33 446.35 395.51
  Q 448.50 387.72 450.29 384.28
  Q 451.32 382.31 456.16 378.87
  A 3.81 3.74 -69.1 0 1 457.40 378.30
  C 466.18 375.99 472.15 379.67 476.03 387.23
  Q 478.22 391.51 479.24 394.80
  Q 480.47 398.78 480.82 399.67
  A 0.51 0.51 0.0 0 0 481.78 399.65
  L 481.95 399.17"
/>
<path stroke="#382311" vector-effect="non-scaling-stroke" d="
  M 463.16 420.59
  Q 462.15 420.70 462.03 421.08
  C 461.10 423.91 460.01 426.55 459.36 428.95
  Q 454.92 445.38 450.63 457.84
  Q 449.21 461.99 447.95 466.93
  Q 446.45 472.83 445.28 476.05
  Q 442.68 483.16 441.07 490.51
  Q 440.36 493.71 437.41 501.85
  C 434.29 510.42 431.83 522.57 428.47 532.71
  Q 425.86 540.61 425.09 543.83
  C 423.86 548.96 421.36 555.78 420.10 559.21
  Q 419.26 561.48 417.64 568.03
  C 415.78 575.54 414.89 578.91 409.47 583.91
  A 2.96 2.90 11.9 0 1 408.53 584.51
  Q 403.74 586.44 400.74 584.07
  C 396.51 580.72 394.61 576.92 393.27 571.67
  C 391.78 565.85 390.70 563.20 389.90 558.01
  Q 389.46 555.16 387.57 549.47
  Q 386.22 545.38 385.22 540.94
  C 384.23 536.51 382.35 530.44 381.26 525.16
  Q 380.77 522.74 379.62 518.77
  Q 378.33 514.30 377.26 509.19
  Q 375.55 501.04 374.27 497.47
  Q 373.58 495.55 373.03 491.84
  Q 372.72 489.69 371.62 486.23
  Q 370.16 481.62 369.27 477.90
  Q 367.70 471.35 366.05 464.59
  Q 365.30 461.53 364.76 459.37
  Q 363.25 453.40 361.83 447.52
  Q 358.69 434.48 355.39 421.40
  Q 354.63 418.41 351.50 405.79
  Q 349.80 398.95 347.98 392.10
  Q 346.99 388.43 342.75 371.75
  Q 341.79 367.96 339.44 359.80
  Q 338.98 358.20 337.86 358.36"
/>
<path stroke="#f8cfcd" vector-effect="non-scaling-stroke" d="
  M 527.15 522.92
  Q 529.07 526.64 533.24 527.21
  C 537.91 527.84 541.41 526.11 542.34 521.27
  Q 543.40 515.74 537.94 513.34"
/>
<path stroke="#fa9493" vector-effect="non-scaling-stroke" d="
  M 537.94 513.34
  Q 536.15 509.64 532.24 508.75
  C 523.08 506.67 518.86 518.41 527.15 522.92"
/>
<path stroke="#fc6d6c" vector-effect="non-scaling-stroke" d="
  M 537.94 513.34
  C 539.44 521.31 533.97 524.54 527.15 522.92"
/>
<path stroke="#f8cfcd" vector-effect="non-scaling-stroke" d="
  M 599.46 549.20
  Q 601.88 552.89 605.86 553.92
  Q 611.80 555.44 617.75 556.97
  Q 621.92 558.03 623.58 558.07"
/>
<path stroke="#fa9493" vector-effect="non-scaling-stroke" d="
  M 623.58 558.07
  C 626.03 564.99 622.54 569.85 615.41 570.38
  C 606.80 571.02 600.34 567.28 595.05 560.78
  A 0.89 0.89 0.0 0 0 593.67 560.78
  L 587.20 568.64
  A 1.50 1.49 -43.2 0 0 587.14 570.46
  Q 590.83 575.66 596.40 578.66"
/>
<path stroke="#f8cfcd" vector-effect="non-scaling-stroke" d="
  M 596.40 578.66
  Q 599.68 582.36 604.14 583.88
  C 608.67 585.43 616.71 586.13 622.26 585.82
  Q 629.46 585.41 635.62 580.60
  Q 640.08 577.11 641.47 570.25
  Q 643.91 558.10 636.72 551.87"
/>
<path stroke="#fa9493" vector-effect="non-scaling-stroke" d="
  M 636.72 551.87
  Q 630.97 544.17 622.41 542.11
  Q 610.38 539.21 605.16 537.70"
/>
<path stroke="#f8cfcd" vector-effect="non-scaling-stroke" d="
  M 605.16 537.70
  Q 605.78 532.98 607.15 531.42
  C 611.65 526.32 620.67 528.14 626.31 529.48"
/>
<path stroke="#fa9493" vector-effect="non-scaling-stroke" d="
  M 626.31 529.48
  Q 627.06 529.69 627.12 530.12"
/>
<path stroke="#f8cfcd" vector-effect="non-scaling-stroke" d="
  M 627.12 530.12
  L 631.87 533.74
  A 1.03 1.02 36.3 0 0 633.32 533.52
  L 638.99 525.67
  A 0.84 0.83 -50.1 0 0 638.90 524.58
  L 635.30 521.09"
/>
<path stroke="#fa9493" vector-effect="non-scaling-stroke" d="
  M 635.30 521.09
  Q 628.81 514.46 619.23 513.11
  Q 612.52 512.17 606.74 512.96
  C 597.65 514.20 589.81 520.07 588.81 529.75
  Q 587.46 542.72 599.46 549.20"
/>
<path stroke="#fc6d6c" vector-effect="non-scaling-stroke" d="
  M 635.30 521.09
  Q 632.15 525.52 629.22 529.47
  Q 628.62 530.27 627.12 530.12"
/>
<path stroke="#fc6d6c" vector-effect="non-scaling-stroke" d="
  M 626.31 529.48
  Q 624.55 527.01 621.87 525.92
  Q 615.38 523.25 608.48 524.60
  Q 604.46 525.37 603.39 526.85
  Q 599.02 532.83 605.16 537.70"
/>
<path stroke="#fc6d6c" vector-effect="non-scaling-stroke" d="
  M 636.72 551.87
  Q 636.81 554.07 637.18 556.18
  C 638.27 562.36 637.92 567.46 634.73 572.90
  C 631.15 579.01 622.93 581.93 616.00 582.04
  Q 606.00 582.21 596.40 578.66"
/>
<path stroke="#fc6d6c" vector-effect="non-scaling-stroke" d="
  M 623.58 558.07
  Q 620.88 554.65 616.80 553.68
  Q 607.92 551.56 599.46 549.20"
/>
<path stroke="#f8cfcd" vector-effect="non-scaling-stroke" d="
  M 478.68 582.87
  L 486.92 584.79
  A 0.83 0.82 -2.3 0 0 487.90 583.74
  C 487.33 582.00 487.02 580.54 487.21 578.76
  Q 488.33 568.38 488.06 559.46
  A 1.62 1.62 0.0 0 1 489.68 557.79
  L 514.38 557.79
  A 0.76 0.76 0.0 0 0 515.14 556.97
  Q 514.83 552.94 515.06 548.09
  A 1.32 1.28 79.4 0 0 513.24 546.80
  Q 512.22 547.27 510.91 546.19"
/>
<path stroke="#fa9493" vector-effect="non-scaling-stroke" d="
  M 510.91 546.19
  Q 511.25 544.86 511.06 543.61
  A 0.62 0.62 0.0 0 0 510.46 543.09
  L 505.05 542.99"
/>
<path stroke="#f8cfcd" vector-effect="non-scaling-stroke" d="
  M 505.05 542.99
  L 490.00 542.90
  A 1.51 1.51 0.0 0 1 488.50 541.39
  L 488.50 529.62
  A 0.55 0.54 -0.0 0 1 489.05 529.08
  L 516.84 529.08
  A 1.18 1.18 0.0 0 0 518.02 527.90
  L 518.02 518.81
  A 1.40 1.40 0.0 0 0 516.17 517.49
  Q 514.41 518.10 513.74 516.81"
/>
<path stroke="#fa9493" vector-effect="non-scaling-stroke" d="
  M 513.74 516.81
  Q 513.87 515.51 513.54 514.30
  A 0.67 0.67 0.0 0 0 512.89 513.80
  L 471.29 513.80
  A 0.37 0.36 -90.0 0 0 470.93 514.17
  L 470.93 580.38
  A 0.96 0.96 0.0 0 0 471.68 581.32
  L 478.68 582.87"
/>
<path stroke="#fc6d6c" vector-effect="non-scaling-stroke" d="
  M 513.74 516.81
  L 513.82 524.16
  A 0.84 0.84 0.0 0 1 512.98 525.01
  L 484.78 525.01
  A 0.56 0.56 0.0 0 0 484.22 525.57
  L 484.22 542.34
  A 0.58 0.57 0.5 0 0 484.79 542.91
  L 505.05 542.99"
/>
<path stroke="#fc6d6c" vector-effect="non-scaling-stroke" d="
  M 510.91 546.19
  L 511.31 553.57
  A 0.46 0.46 0.0 0 1 510.85 554.05
  L 485.05 554.05
  A 0.92 0.92 0.0 0 0 484.13 555.00
  Q 484.55 567.20 484.86 577.77
  Q 484.95 580.79 486.58 583.09
  A 0.40 0.39 82.6 0 1 486.12 583.69
  Q 482.12 582.17 478.68 582.87"
/>
<path stroke="#f8cfcd" vector-effect="non-scaling-stroke" d="
  M 562.44 581.19
  Q 569.64 588.45 581.54 584.88
  Q 584.08 584.12 586.19 582.42
  A 0.94 0.93 -30.0 0 0 586.48 581.35
  L 583.72 574.13
  A 0.76 0.75 76.3 0 0 582.94 573.65
  L 581.23 573.83"
/>
<path stroke="#fa9493" vector-effect="non-scaling-stroke" d="
  M 581.23 573.83
  L 579.52 569.51
  A 1.11 1.11 0.0 0 0 577.85 569.00
  Q 574.43 571.41 570.45 570.39"
/>
<path stroke="#f8cfcd" vector-effect="non-scaling-stroke" d="
  M 570.45 570.39
  L 570.36 544.62
  A 0.62 0.62 0.0 0 1 570.98 544.00
  L 583.97 544.00
  A 0.76 0.76 0.0 0 0 584.73 543.24
  L 584.73 535.15
  A 1.06 1.06 0.0 0 0 583.02 534.32
  Q 582.14 535.00 580.91 534.81"
/>
<path stroke="#fa9493" vector-effect="non-scaling-stroke" d="
  M 580.91 534.81
  L 580.56 530.71
  A 0.57 0.56 88.9 0 0 580.02 530.19
  L 569.01 529.80"
/>
<path stroke="#f8cfcd" vector-effect="non-scaling-stroke" d="
  M 569.01 529.80
  Q 568.98 529.57 568.95 529.39
  A 0.64 0.64 0.0 0 1 569.34 528.70
  Q 569.42 528.66 569.68 528.62
  A 0.26 0.25 -5.5 0 0 569.89 528.37
  L 569.89 523.22
  A 0.64 0.64 0.0 0 0 568.74 522.83
  Q 568.02 523.75 566.79 524.42"
/>
<path stroke="#fa9493" vector-effect="non-scaling-stroke" d="
  M 566.79 524.42
  L 566.20 518.68
  A 0.57 0.56 -6.9 0 0 565.56 518.18
  L 554.12 519.93
  A 0.68 0.68 0.0 0 0 553.55 520.60
  L 553.55 529.36
  A 0.62 0.62 0.0 0 1 552.93 529.98
  L 546.35 529.98
  A 0.58 0.57 -0.0 0 0 545.77 530.55
  L 545.77 539.74
  A 0.56 0.56 0.0 0 0 546.33 540.30
  L 552.70 540.30
  A 0.63 0.63 0.0 0 1 553.33 540.92
  Q 553.59 551.60 553.65 566.51
  Q 553.69 575.82 562.44 581.19"
/>
<path stroke="#fc6d6c" vector-effect="non-scaling-stroke" d="
  M 566.79 524.42
  L 566.63 529.14
  A 0.56 0.56 0.0 0 0 567.16 529.71
  L 569.01 529.80"
/>
<path stroke="#fc6d6c" vector-effect="non-scaling-stroke" d="
  M 580.91 534.81
  L 581.10 539.86
  A 0.49 0.49 0.0 0 1 580.61 540.37
  L 566.86 540.37
  A 0.54 0.53 0.5 0 0 566.32 540.89
  Q 566.20 549.11 566.30 562.49
  C 566.33 566.09 566.75 569.40 570.45 570.39"
/>
<path stroke="#fc6d6c" vector-effect="non-scaling-stroke" d="
  M 581.23 573.83
  L 582.40 577.77
  A 0.96 0.95 66.3 0 1 581.98 578.86
  Q 574.98 583.07 566.76 581.62
  Q 564.52 581.22 562.44 581.19"
/>
<path stroke="#f8cfcd" vector-effect="non-scaling-stroke" d="
  M 658.87 579.60
  Q 662.86 584.37 670.01 585.43
  C 680.86 587.04 690.83 584.42 695.50 573.97
  Q 696.40 571.95 695.34 570.54
  Q 695.32 570.50 693.31 569.60
  Q 692.29 569.15 692.21 567.72"
/>
<path stroke="#fa9493" vector-effect="non-scaling-stroke" d="
  M 692.21 567.72
  L 683.21 562.32
  A 0.57 0.56 25.3 0 0 682.39 562.61
  C 679.52 570.45 672.26 573.46 664.84 569.40
  Q 664.52 569.23 664.28 568.50"
/>
<path stroke="#f8cfcd" vector-effect="non-scaling-stroke" d="
  M 664.28 568.50
  Q 664.03 564.75 663.55 561.00
  Q 663.15 557.95 664.37 552.26
  Q 665.73 545.98 672.36 544.20
  A 2.53 2.12 33.3 0 1 673.05 544.12
  Q 676.18 544.25 679.57 543.53"
/>
<path stroke="#fa9493" vector-effect="non-scaling-stroke" d="
  M 679.57 543.53
  Q 680.78 546.46 683.12 546.99"
/>
<path stroke="#f8cfcd" vector-effect="non-scaling-stroke" d="
  M 683.12 546.99
  L 686.38 550.75
  A 0.67 0.66 -38.4 0 0 687.28 550.85
  L 695.09 545.14
  A 0.83 0.83 0.0 0 0 695.40 544.28
  Q 694.84 541.88 692.53 540.09"
/>
<path stroke="#fa9493" vector-effect="non-scaling-stroke" d="
  M 692.53 540.09
  Q 691.13 538.98 689.77 537.24
  C 685.92 532.29 681.50 530.05 674.96 529.31
  C 664.60 528.15 654.31 531.36 649.40 540.97
  C 645.57 548.47 645.16 557.97 647.54 565.71
  Q 650.28 574.66 658.87 579.60"
/>
<path stroke="#fc6d6c" vector-effect="non-scaling-stroke" d="
  M 692.53 540.09
  L 683.12 546.99"
/>
<path stroke="#fc6d6c" vector-effect="non-scaling-stroke" d="
  M 679.57 543.53
  Q 671.98 537.11 664.28 542.06
  C 658.07 546.05 658.59 557.03 660.25 563.25
  Q 660.97 565.96 663.49 568.26
  Q 664.03 568.75 664.28 568.50"
/>
<path stroke="#fc6d6c" vector-effect="non-scaling-stroke" d="
  M 692.21 567.72
  Q 688.42 578.06 679.76 580.76
  Q 669.67 583.91 658.87 579.60"
/>
<path stroke="#f8cfcd" vector-effect="non-scaling-stroke" d="
  M 706.06 545.89
  L 708.21 549.59
  A 0.94 0.93 -33.2 0 0 709.57 549.87
  C 712.08 548.06 714.55 545.81 717.37 544.73
  Q 721.92 543.00 727.11 543.08"
/>
<path stroke="#fa9493" vector-effect="non-scaling-stroke" d="
  M 727.11 543.08
  C 728.31 546.80 725.29 548.87 722.15 549.58
  C 716.65 550.82 708.08 551.62 703.45 555.19
  Q 698.34 559.13 697.94 565.49
  Q 697.32 575.53 705.80 580.79"
/>
<path stroke="#f8cfcd" vector-effect="non-scaling-stroke" d="
  M 705.80 580.79
  Q 713.44 589.29 725.21 584.49
  Q 729.00 582.95 731.55 578.64"
/>
<path stroke="#fa9493" vector-effect="non-scaling-stroke" d="
  M 731.55 578.64
  Q 733.10 579.45 733.87 580.42"
/>
<path stroke="#f8cfcd" vector-effect="non-scaling-stroke" d="
  M 733.87 580.42
  Q 739.70 587.62 750.13 583.79
  A 0.71 0.71 0.0 0 0 750.59 583.06
  Q 750.31 579.73 749.65 575.66
  A 0.90 0.86 54.7 0 0 748.01 575.34
  Q 747.52 576.34 746.34 575.44"
/>
<path stroke="#fa9493" vector-effect="non-scaling-stroke" d="
  M 746.34 575.44
  L 745.44 570.72"
/>
<path stroke="#f8cfcd" vector-effect="non-scaling-stroke" d="
  M 745.44 570.72
  L 744.41 569.61
  A 1.23 1.23 0.0 0 1 744.09 568.81
  Q 744.02 558.53 744.06 548.26
  Q 744.09 540.08 737.26 535.61"
/>
<path stroke="#fa9493" vector-effect="non-scaling-stroke" d="
  M 737.26 535.61
  Q 733.35 530.69 726.50 529.55
  Q 710.72 526.92 699.61 537.83
  A 0.89 0.88 -39.2 0 0 699.49 538.96
  L 703.74 545.28
  A 1.15 1.11 -89.0 0 0 704.01 545.57
  Q 705.39 546.60 706.06 545.89"
/>
<path stroke="#fc6d6c" vector-effect="non-scaling-stroke" d="
  M 737.26 535.61
  Q 739.50 540.47 739.68 545.25
  Q 740.04 555.14 739.66 567.00
  Q 739.61 568.64 740.26 570.00
  A 1.27 1.26 -2.3 0 0 740.96 570.64
  Q 743.11 571.42 745.44 570.72"
/>
<path stroke="#fc6d6c" vector-effect="non-scaling-stroke" d="
  M 746.34 575.44
  L 746.51 579.66
  A 0.58 0.57 -8.8 0 1 746.08 580.24
  Q 740.15 581.69 733.87 580.42"
/>
<path stroke="#fc6d6c" vector-effect="non-scaling-stroke" d="
  M 731.55 578.64
  L 728.67 574.02
  A 0.70 0.70 0.0 0 0 727.46 574.07
  Q 723.53 581.74 714.50 581.86
  Q 712.21 581.89 705.80 580.79"
/>
<path stroke="#fc6d6c" vector-effect="non-scaling-stroke" d="
  M 727.11 543.08
  C 726.44 539.84 722.18 538.92 719.49 539.16
  Q 711.23 539.90 706.06 545.89"
/>
<path stroke="#f8cfcd" vector-effect="non-scaling-stroke" d="
  M 758.98 581.21
  Q 759.32 582.32 759.28 583.57
  A 0.54 0.54 0.0 0 0 759.78 584.13
  L 770.37 584.93
  A 0.95 0.94 -4.5 0 0 771.36 583.78
  Q 770.86 581.67 771.07 580.00
  Q 772.09 572.05 771.86 562.59
  Q 771.65 554.20 773.08 550.57
  Q 776.22 542.60 787.23 543.94"
/>
<path stroke="#fa9493" vector-effect="non-scaling-stroke" d="
  M 787.23 543.94
  Q 788.00 546.25 787.99 548.76
  Q 787.93 564.42 788.05 580.16
  A 0.79 0.79 0.0 0 0 788.52 580.88
  Q 789.76 581.41 791.19 581.27"
/>
<path stroke="#f8cfcd" vector-effect="non-scaling-stroke" d="
  M 791.19 581.27
  Q 792.84 582.62 794.80 583.26
  A 2.87 2.67 50.2 0 0 795.81 583.39
  Q 798.87 583.20 801.98 584.25
  A 1.30 1.30 0.0 0 0 803.68 582.78
  Q 802.25 574.96 803.48 566.31
  C 803.94 563.15 804.16 559.07 804.27 555.92
  Q 804.51 549.08 804.44 548.09
  Q 803.97 541.39 799.30 537.34"
/>
<path stroke="#fa9493" vector-effect="non-scaling-stroke" d="
  M 799.30 537.34
  Q 795.10 530.48 787.48 529.31
  Q 782.47 528.55 777.75 529.99
  C 774.68 530.94 772.46 532.99 769.79 534.68
  A 1.29 1.27 86.2 0 0 769.29 535.26
  L 768.37 537.29
  A 0.43 0.43 0.0 0 1 767.54 537.11
  L 767.54 530.62
  A 0.64 0.64 0.0 0 0 766.90 529.98
  L 755.52 529.98
  A 0.47 0.47 0.0 0 0 755.05 530.45
  L 755.05 580.07
  A 1.00 1.00 0.0 0 0 756.01 581.07
  L 758.98 581.21"
/>
<path stroke="#fc6d6c" vector-effect="non-scaling-stroke" d="
  M 799.30 537.34
  Q 799.80 540.05 800.27 542.62
  Q 800.78 545.37 800.85 547.93
  Q 801.50 570.24 801.54 577.00
  Q 801.57 581.36 801.87 581.93
  A 0.48 0.47 -13.9 0 1 801.45 582.62
  Q 800.52 582.63 799.67 582.12
  A 1.24 1.20 61.9 0 0 799.11 581.94
  L 791.19 581.27"
/>
<path stroke="#fc6d6c" vector-effect="non-scaling-stroke" d="
  M 787.23 543.94
  Q 784.91 539.57 779.96 539.71
  Q 768.72 540.03 768.05 551.57
  Q 767.18 566.41 768.31 581.22
  A 0.36 0.36 0.0 0 1 767.93 581.61
  L 758.98 581.21"
/>
<path stroke="#f8cfcd" vector-effect="non-scaling-stroke" d="
  M 527.95 581.23
  Q 527.79 583.70 530.07 584.11
  Q 535.10 585.02 540.24 584.69
  A 0.62 0.61 -4.5 0 0 540.82 584.02
  Q 540.50 580.74 540.87 574.33
  Q 541.01 572.09 541.03 564.66
  Q 541.05 555.65 541.17 538.50
  Q 541.18 536.59 540.77 534.61
  A 0.75 0.75 0.0 0 0 540.05 534.01
  L 537.00 533.92"
/>
<path stroke="#fa9493" vector-effect="non-scaling-stroke" d="
  M 537.00 533.92
  L 536.81 530.57
  A 0.61 0.61 0.0 0 0 536.20 529.99
  L 524.55 529.99
  A 0.48 0.48 0.0 0 0 524.07 530.47
  L 524.07 580.62
  A 0.52 0.52 0.0 0 0 524.58 581.14
  L 527.95 581.23"
/>
<path stroke="#fc6d6c" vector-effect="non-scaling-stroke" d="
  M 537.00 533.92
  L 537.03 580.80
  A 0.49 0.49 0.0 0 1 536.54 581.29
  L 527.95 581.23"
/>
<path stroke="#f8cfcd" vector-effect="non-scaling-stroke" d="
  M 552.00 543.60
  Q 552.76 543.24 552.84 543.11
  A 0.68 0.68 0.0 0 0 552.64 542.18
  Q 551.06 541.13 550.88 541.22
  Q 550.69 541.30 550.50 543.19
  A 0.68 0.68 0.0 0 0 551.09 543.93
  Q 551.24 543.95 552.00 543.60"
/>
<path stroke="#fa9493" vector-effect="non-scaling-stroke" d="
  M 715.02 572.04
  Q 726.42 574.12 727.73 561.77"
/>
<path stroke="#fc6d6c" vector-effect="non-scaling-stroke" d="
  M 727.73 561.77
  L 727.74 556.13
  A 0.32 0.31 -9.0 0 0 727.33 555.84
  Q 721.62 557.68 715.93 559.14
  Q 710.78 560.46 710.57 565.70
  Q 710.38 570.66 715.02 572.04"
/>
<path stroke="#f8cfcd" vector-effect="non-scaling-stroke" d="
  M 727.73 561.77
  Q 722.97 562.01 719.55 563.30
  Q 714.28 565.31 715.02 572.04"
/>
</g>
<path fill="#f6f6f4" d="
  M 1024.00 0.00
  L 1024.00 1024.00
  L 0.00 1024.00
  L 0.00 0.00
  L 1024.00 0.00
  Z
  M 337.01 358.26
  L 337.86 358.36
  C 358.54 438.37 378.22 519.61 392.75 575.04
  C 394.26 580.80 397.60 586.59 404.19 586.71
  C 411.89 586.86 415.51 580.52 417.47 573.95
  Q 440.29 497.25 463.16 420.59
  Q 463.93 420.58 464.36 421.99
  Q 464.69 423.07 464.80 423.38
  Q 470.49 438.78 477.77 457.99
  Q 480.82 466.02 482.94 469.55
  C 489.91 481.18 502.01 481.20 514.07 481.20
  Q 588.97 481.19 627.40 481.20
  Q 632.27 481.20 634.24 480.55
  C 640.35 478.54 643.28 472.31 641.34 466.18
  C 638.88 458.40 634.10 458.87 626.05 458.87
  Q 598.15 458.89 510.25 458.87
  Q 508.46 458.87 504.73 457.76
  A 2.53 2.52 -7.2 0 1 503.31 456.66
  Q 501.09 453.05 499.87 449.58
  Q 490.97 424.37 481.95 399.17
  C 478.94 390.67 476.03 379.61 466.12 376.76
  C 458.31 374.52 451.10 378.99 448.06 386.37
  Q 447.48 387.77 445.90 393.10
  Q 421.17 476.53 408.57 519.06
  Q 407.48 522.74 406.59 526.45
  Q 406.25 527.82 405.57 527.50
  A 0.45 0.44 -84.3 0 1 405.34 527.21
  L 401.01 509.44
  Q 376.02 409.00 351.18 308.51
  C 349.36 301.15 345.76 293.83 337.13 293.86
  C 328.71 293.89 325.21 300.03 323.47 307.27
  Q 304.81 384.65 293.54 426.54
  Q 271.36 508.99 266.32 527.71
  A 0.46 0.46 0.0 0 1 265.43 527.73
  Q 245.42 463.78 225.39 398.39
  C 222.60 389.28 218.35 381.16 207.52 380.98
  Q 195.63 380.78 192.53 381.31
  Q 183.45 382.86 186.30 391.69
  Q 211.77 470.41 244.48 571.78
  C 246.71 578.68 251.20 584.78 258.74 586.17
  C 268.32 587.93 275.31 583.47 279.00 574.90
  Q 281.32 569.53 282.06 566.76
  Q 309.07 466.78 336.73 360.76
  Q 337.04 359.57 337.01 358.26
  Z
  M 527.15 522.92
  Q 529.07 526.64 533.24 527.21
  C 537.91 527.84 541.41 526.11 542.34 521.27
  Q 543.40 515.74 537.94 513.34
  Q 536.15 509.64 532.24 508.75
  C 523.08 506.67 518.86 518.41 527.15 522.92
  Z
  M 599.46 549.20
  Q 601.88 552.89 605.86 553.92
  Q 611.80 555.44 617.75 556.97
  Q 621.92 558.03 623.58 558.07
  C 626.03 564.99 622.54 569.85 615.41 570.38
  C 606.80 571.02 600.34 567.28 595.05 560.78
  A 0.89 0.89 0.0 0 0 593.67 560.78
  L 587.20 568.64
  A 1.50 1.49 -43.2 0 0 587.14 570.46
  Q 590.83 575.66 596.40 578.66
  Q 599.68 582.36 604.14 583.88
  C 608.67 585.43 616.71 586.13 622.26 585.82
  Q 629.46 585.41 635.62 580.60
  Q 640.08 577.11 641.47 570.25
  Q 643.91 558.10 636.72 551.87
  Q 630.97 544.17 622.41 542.11
  Q 610.38 539.21 605.16 537.70
  Q 605.78 532.98 607.15 531.42
  C 611.65 526.32 620.67 528.14 626.31 529.48
  Q 627.06 529.69 627.12 530.12
  L 631.87 533.74
  A 1.03 1.02 36.3 0 0 633.32 533.52
  L 638.99 525.67
  A 0.84 0.83 -50.1 0 0 638.90 524.58
  L 635.30 521.09
  Q 628.81 514.46 619.23 513.11
  Q 612.52 512.17 606.74 512.96
  C 597.65 514.20 589.81 520.07 588.81 529.75
  Q 587.46 542.72 599.46 549.20
  Z
  M 478.68 582.87
  L 486.92 584.79
  A 0.83 0.82 -2.3 0 0 487.90 583.74
  C 487.33 582.00 487.02 580.54 487.21 578.76
  Q 488.33 568.38 488.06 559.46
  A 1.62 1.62 0.0 0 1 489.68 557.79
  L 514.38 557.79
  A 0.76 0.76 0.0 0 0 515.14 556.97
  Q 514.83 552.94 515.06 548.09
  A 1.32 1.28 79.4 0 0 513.24 546.80
  Q 512.22 547.27 510.91 546.19
  Q 511.25 544.86 511.06 543.61
  A 0.62 0.62 0.0 0 0 510.46 543.09
  L 505.05 542.99
  L 490.00 542.90
  A 1.51 1.51 0.0 0 1 488.50 541.39
  L 488.50 529.62
  A 0.55 0.54 -0.0 0 1 489.05 529.08
  L 516.84 529.08
  A 1.18 1.18 0.0 0 0 518.02 527.90
  L 518.02 518.81
  A 1.40 1.40 0.0 0 0 516.17 517.49
  Q 514.41 518.10 513.74 516.81
  Q 513.87 515.51 513.54 514.30
  A 0.67 0.67 0.0 0 0 512.89 513.80
  L 471.29 513.80
  A 0.37 0.36 -90.0 0 0 470.93 514.17
  L 470.93 580.38
  A 0.96 0.96 0.0 0 0 471.68 581.32
  L 478.68 582.87
  Z
  M 562.44 581.19
  Q 569.64 588.45 581.54 584.88
  Q 584.08 584.12 586.19 582.42
  A 0.94 0.93 -30.0 0 0 586.48 581.35
  L 583.72 574.13
  A 0.76 0.75 76.3 0 0 582.94 573.65
  L 581.23 573.83
  L 579.52 569.51
  A 1.11 1.11 0.0 0 0 577.85 569.00
  Q 574.43 571.41 570.45 570.39
  L 570.36 544.62
  A 0.62 0.62 0.0 0 1 570.98 544.00
  L 583.97 544.00
  A 0.76 0.76 0.0 0 0 584.73 543.24
  L 584.73 535.15
  A 1.06 1.06 0.0 0 0 583.02 534.32
  Q 582.14 535.00 580.91 534.81
  L 580.56 530.71
  A 0.57 0.56 88.9 0 0 580.02 530.19
  L 569.01 529.80
  Q 568.98 529.57 568.95 529.39
  A 0.64 0.64 0.0 0 1 569.34 528.70
  Q 569.42 528.66 569.68 528.62
  A 0.26 0.25 -5.5 0 0 569.89 528.37
  L 569.89 523.22
  A 0.64 0.64 0.0 0 0 568.74 522.83
  Q 568.02 523.75 566.79 524.42
  L 566.20 518.68
  A 0.57 0.56 -6.9 0 0 565.56 518.18
  L 554.12 519.93
  A 0.68 0.68 0.0 0 0 553.55 520.60
  L 553.55 529.36
  A 0.62 0.62 0.0 0 1 552.93 529.98
  L 546.35 529.98
  A 0.58 0.57 -0.0 0 0 545.77 530.55
  L 545.77 539.74
  A 0.56 0.56 0.0 0 0 546.33 540.30
  L 552.70 540.30
  A 0.63 0.63 0.0 0 1 553.33 540.92
  Q 553.59 551.60 553.65 566.51
  Q 553.69 575.82 562.44 581.19
  Z
  M 658.87 579.60
  Q 662.86 584.37 670.01 585.43
  C 680.86 587.04 690.83 584.42 695.50 573.97
  Q 696.40 571.95 695.34 570.54
  Q 695.32 570.50 693.31 569.60
  Q 692.29 569.15 692.21 567.72
  L 683.21 562.32
  A 0.57 0.56 25.3 0 0 682.39 562.61
  C 679.52 570.45 672.26 573.46 664.84 569.40
  Q 664.52 569.23 664.28 568.50
  Q 664.03 564.75 663.55 561.00
  Q 663.15 557.95 664.37 552.26
  Q 665.73 545.98 672.36 544.20
  A 2.53 2.12 33.3 0 1 673.05 544.12
  Q 676.18 544.25 679.57 543.53
  Q 680.78 546.46 683.12 546.99
  L 686.38 550.75
  A 0.67 0.66 -38.4 0 0 687.28 550.85
  L 695.09 545.14
  A 0.83 0.83 0.0 0 0 695.40 544.28
  Q 694.84 541.88 692.53 540.09
  Q 691.13 538.98 689.77 537.24
  C 685.92 532.29 681.50 530.05 674.96 529.31
  C 664.60 528.15 654.31 531.36 649.40 540.97
  C 645.57 548.47 645.16 557.97 647.54 565.71
  Q 650.28 574.66 658.87 579.60
  Z
  M 706.06 545.89
  L 708.21 549.59
  A 0.94 0.93 -33.2 0 0 709.57 549.87
  C 712.08 548.06 714.55 545.81 717.37 544.73
  Q 721.92 543.00 727.11 543.08
  C 728.31 546.80 725.29 548.87 722.15 549.58
  C 716.65 550.82 708.08 551.62 703.45 555.19
  Q 698.34 559.13 697.94 565.49
  Q 697.32 575.53 705.80 580.79
  Q 713.44 589.29 725.21 584.49
  Q 729.00 582.95 731.55 578.64
  Q 733.10 579.45 733.87 580.42
  Q 739.70 587.62 750.13 583.79
  A 0.71 0.71 0.0 0 0 750.59 583.06
  Q 750.31 579.73 749.65 575.66
  A 0.90 0.86 54.7 0 0 748.01 575.34
  Q 747.52 576.34 746.34 575.44
  L 745.44 570.72
  L 744.41 569.61
  A 1.23 1.23 0.0 0 1 744.09 568.81
  Q 744.02 558.53 744.06 548.26
  Q 744.09 540.08 737.26 535.61
  Q 733.35 530.69 726.50 529.55
  Q 710.72 526.92 699.61 537.83
  A 0.89 0.88 -39.2 0 0 699.49 538.96
  L 703.74 545.28
  A 1.15 1.11 -89.0 0 0 704.01 545.57
  Q 705.39 546.60 706.06 545.89
  Z
  M 758.98 581.21
  Q 759.32 582.32 759.28 583.57
  A 0.54 0.54 0.0 0 0 759.78 584.13
  L 770.37 584.93
  A 0.95 0.94 -4.5 0 0 771.36 583.78
  Q 770.86 581.67 771.07 580.00
  Q 772.09 572.05 771.86 562.59
  Q 771.65 554.20 773.08 550.57
  Q 776.22 542.60 787.23 543.94
  Q 788.00 546.25 787.99 548.76
  Q 787.93 564.42 788.05 580.16
  A 0.79 0.79 0.0 0 0 788.52 580.88
  Q 789.76 581.41 791.19 581.27
  Q 792.84 582.62 794.80 583.26
  A 2.87 2.67 50.2 0 0 795.81 583.39
  Q 798.87 583.20 801.98 584.25
  A 1.30 1.30 0.0 0 0 803.68 582.78
  Q 802.25 574.96 803.48 566.31
  C 803.94 563.15 804.16 559.07 804.27 555.92
  Q 804.51 549.08 804.44 548.09
  Q 803.97 541.39 799.30 537.34
  Q 795.10 530.48 787.48 529.31
  Q 782.47 528.55 777.75 529.99
  C 774.68 530.94 772.46 532.99 769.79 534.68
  A 1.29 1.27 86.2 0 0 769.29 535.26
  L 768.37 537.29
  A 0.43 0.43 0.0 0 1 767.54 537.11
  L 767.54 530.62
  A 0.64 0.64 0.0 0 0 766.90 529.98
  L 755.52 529.98
  A 0.47 0.47 0.0 0 0 755.05 530.45
  L 755.05 580.07
  A 1.00 1.00 0.0 0 0 756.01 581.07
  L 758.98 581.21
  Z
  M 527.95 581.23
  Q 527.79 583.70 530.07 584.11
  Q 535.10 585.02 540.24 584.69
  A 0.62 0.61 -4.5 0 0 540.82 584.02
  Q 540.50 580.74 540.87 574.33
  Q 541.01 572.09 541.03 564.66
  Q 541.05 555.65 541.17 538.50
  Q 541.18 536.59 540.77 534.61
  A 0.75 0.75 0.0 0 0 540.05 534.01
  L 537.00 533.92
  L 536.81 530.57
  A 0.61 0.61 0.0 0 0 536.20 529.99
  L 524.55 529.99
  A 0.48 0.48 0.0 0 0 524.07 530.47
  L 524.07 580.62
  A 0.52 0.52 0.0 0 0 524.58 581.14
  L 527.95 581.23
  Z
  M 552.00 543.60
  Q 552.76 543.24 552.84 543.11
  A 0.68 0.68 0.0 0 0 552.64 542.18
  Q 551.06 541.13 550.88 541.22
  Q 550.69 541.30 550.50 543.19
  A 0.68 0.68 0.0 0 0 551.09 543.93
  Q 551.24 543.95 552.00 543.60
  Z"
/>
<path fill="#1a1a19" d="
  M 401.01 509.44
  Q 399.97 509.51 399.84 509.01
  Q 391.53 475.26 389.75 469.20
  Q 388.96 466.49 388.32 463.74
  Q 386.01 453.83 385.31 451.01
  Q 382.92 441.38 372.57 399.23
  C 372.25 397.95 371.59 396.51 371.36 395.46
  Q 367.60 378.52 366.45 374.03
  C 366.04 372.45 365.40 371.05 365.03 369.51
  Q 359.56 347.25 359.02 344.80
  Q 358.00 340.22 356.98 336.64
  Q 355.82 332.63 354.94 328.47
  Q 354.92 328.42 354.11 325.40
  Q 353.75 324.11 353.40 322.32
  Q 350.91 309.55 348.12 302.92
  Q 344.66 294.66 336.30 294.95
  Q 330.64 295.15 327.85 299.80
  Q 325.72 303.36 325.08 306.06
  Q 324.42 308.79 316.72 340.42
  Q 315.25 346.45 313.54 352.57
  Q 311.82 358.75 310.65 364.79
  C 309.41 371.23 307.34 377.51 305.49 384.94
  Q 301.66 400.30 301.65 400.33
  Q 300.87 404.33 297.03 417.25
  C 295.25 423.26 294.36 428.43 292.83 434.57
  A 1.12 1.11 33.5 0 0 293.03 435.52
  Q 300.91 445.89 310.19 453.96
  A 0.35 0.35 0.0 0 0 310.76 453.80
  Q 311.91 450.05 316.63 432.62
  Q 328.15 390.02 330.42 380.27
  Q 331.36 376.27 331.47 375.85
  Q 332.03 373.82 336.27 358.59
  Q 336.34 358.31 336.55 358.20
  Q 336.80 358.06 337.01 358.26
  Q 337.04 359.57 336.73 360.76
  Q 309.07 466.78 282.06 566.76
  Q 281.32 569.53 279.00 574.90
  C 275.31 583.47 268.32 587.93 258.74 586.17
  C 251.20 584.78 246.71 578.68 244.48 571.78
  Q 211.77 470.41 186.30 391.69
  Q 183.45 382.86 192.53 381.31
  Q 195.63 380.78 207.52 380.98
  C 218.35 381.16 222.60 389.28 225.39 398.39
  Q 245.42 463.78 265.43 527.73
  A 0.46 0.46 0.0 0 0 266.32 527.71
  Q 271.36 508.99 293.54 426.54
  Q 304.81 384.65 323.47 307.27
  C 325.21 300.03 328.71 293.89 337.13 293.86
  C 345.76 293.83 349.36 301.15 351.18 308.51
  Q 376.02 409.00 401.01 509.44
  Z"
/>
<path fill="#562c08" d="
  M 401.01 509.44
  L 405.34 527.21
  A 0.45 0.44 -84.3 0 0 405.57 527.50
  Q 406.25 527.82 406.59 526.45
  Q 407.59 526.90 407.98 525.32
  Q 409.84 517.74 413.00 509.06
  Q 413.77 506.96 414.79 502.41
  C 416.26 495.89 417.58 492.60 420.32 483.74
  Q 422.55 476.55 423.83 471.67
  C 426.18 462.73 428.76 456.23 430.98 447.64
  Q 432.18 442.98 434.16 436.82
  C 437.55 426.28 439.48 418.69 443.02 406.99
  Q 444.74 401.33 446.35 395.51
  Q 448.50 387.72 450.29 384.28
  Q 451.32 382.31 456.16 378.87
  A 3.81 3.74 -69.1 0 1 457.40 378.30
  C 466.18 375.99 472.15 379.67 476.03 387.23
  Q 478.22 391.51 479.24 394.80
  Q 480.47 398.78 480.82 399.67
  A 0.51 0.51 0.0 0 0 481.78 399.65
  L 481.95 399.17
  Q 490.97 424.37 499.87 449.58
  Q 501.09 453.05 503.31 456.66
  A 2.53 2.52 -7.2 0 0 504.73 457.76
  Q 508.46 458.87 510.25 458.87
  Q 598.15 458.89 626.05 458.87
  C 634.10 458.87 638.88 458.40 641.34 466.18
  C 643.28 472.31 640.35 478.54 634.24 480.55
  Q 632.27 481.20 627.40 481.20
  Q 588.97 481.19 514.07 481.20
  C 502.01 481.20 489.91 481.18 482.94 469.55
  Q 480.82 466.02 477.77 457.99
  Q 470.49 438.78 464.80 423.38
  Q 464.69 423.07 464.36 421.99
  Q 463.93 420.58 463.16 420.59
  Q 462.15 420.70 462.03 421.08
  C 461.10 423.91 460.01 426.55 459.36 428.95
  Q 454.92 445.38 450.63 457.84
  Q 449.21 461.99 447.95 466.93
  Q 446.45 472.83 445.28 476.05
  Q 442.68 483.16 441.07 490.51
  Q 440.36 493.71 437.41 501.85
  C 434.29 510.42 431.83 522.57 428.47 532.71
  Q 425.86 540.61 425.09 543.83
  C 423.86 548.96 421.36 555.78 420.10 559.21
  Q 419.26 561.48 417.64 568.03
  C 415.78 575.54 414.89 578.91 409.47 583.91
  A 2.96 2.90 11.9 0 1 408.53 584.51
  Q 403.74 586.44 400.74 584.07
  C 396.51 580.72 394.61 576.92 393.27 571.67
  C 391.78 565.85 390.70 563.20 389.90 558.01
  Q 389.46 555.16 387.57 549.47
  Q 386.22 545.38 385.22 540.94
  C 384.23 536.51 382.35 530.44 381.26 525.16
  Q 380.77 522.74 379.62 518.77
  Q 378.33 514.30 377.26 509.19
  Q 375.55 501.04 374.27 497.47
  Q 373.58 495.55 373.03 491.84
  Q 372.72 489.69 371.62 486.23
  Q 370.16 481.62 369.27 477.90
  Q 367.70 471.35 366.05 464.59
  Q 365.30 461.53 364.76 459.37
  Q 363.25 453.40 361.83 447.52
  Q 358.69 434.48 355.39 421.40
  Q 354.63 418.41 351.50 405.79
  Q 349.80 398.95 347.98 392.10
  Q 346.99 388.43 342.75 371.75
  Q 341.79 367.96 339.44 359.80
  Q 338.98 358.20 337.86 358.36
  L 337.01 358.26
  Q 336.80 358.06 336.55 358.20
  Q 336.34 358.31 336.27 358.59
  Q 332.03 373.82 331.47 375.85
  Q 331.36 376.27 330.42 380.27
  Q 328.15 390.02 316.63 432.62
  Q 311.91 450.05 310.76 453.80
  A 0.35 0.35 0.0 0 1 310.19 453.96
  Q 300.91 445.89 293.03 435.52
  A 1.12 1.11 33.5 0 1 292.83 434.57
  C 294.36 428.43 295.25 423.26 297.03 417.25
  Q 300.87 404.33 301.65 400.33
  Q 301.66 400.30 305.49 384.94
  C 307.34 377.51 309.41 371.23 310.65 364.79
  Q 311.82 358.75 313.54 352.57
  Q 315.25 346.45 316.72 340.42
  Q 324.42 308.79 325.08 306.06
  Q 325.72 303.36 327.85 299.80
  Q 330.64 295.15 336.30 294.95
  Q 344.66 294.66 348.12 302.92
  Q 350.91 309.55 353.40 322.32
  Q 353.75 324.11 354.11 325.40
  Q 354.92 328.42 354.94 328.47
  Q 355.82 332.63 356.98 336.64
  Q 358.00 340.22 359.02 344.80
  Q 359.56 347.25 365.03 369.51
  C 365.40 371.05 366.04 372.45 366.45 374.03
  Q 367.60 378.52 371.36 395.46
  C 371.59 396.51 372.25 397.95 372.57 399.23
  Q 382.92 441.38 385.31 451.01
  Q 386.01 453.83 388.32 463.74
  Q 388.96 466.49 389.75 469.20
  Q 391.53 475.26 399.84 509.01
  Q 399.97 509.51 401.01 509.44
  Z"
/>
<path fill="#1a1a19" d="
  M 463.16 420.59
  Q 440.29 497.25 417.47 573.95
  C 415.51 580.52 411.89 586.86 404.19 586.71
  C 397.60 586.59 394.26 580.80 392.75 575.04
  C 378.22 519.61 358.54 438.37 337.86 358.36
  Q 338.98 358.20 339.44 359.80
  Q 341.79 367.96 342.75 371.75
  Q 346.99 388.43 347.98 392.10
  Q 349.80 398.95 351.50 405.79
  Q 354.63 418.41 355.39 421.40
  Q 358.69 434.48 361.83 447.52
  Q 363.25 453.40 364.76 459.37
  Q 365.30 461.53 366.05 464.59
  Q 367.70 471.35 369.27 477.90
  Q 370.16 481.62 371.62 486.23
  Q 372.72 489.69 373.03 491.84
  Q 373.58 495.55 374.27 497.47
  Q 375.55 501.04 377.26 509.19
  Q 378.33 514.30 379.62 518.77
  Q 380.77 522.74 381.26 525.16
  C 382.35 530.44 384.23 536.51 385.22 540.94
  Q 386.22 545.38 387.57 549.47
  Q 389.46 555.16 389.90 558.01
  C 390.70 563.20 391.78 565.85 393.27 571.67
  C 394.61 576.92 396.51 580.72 400.74 584.07
  Q 403.74 586.44 408.53 584.51
  A 2.96 2.90 11.9 0 0 409.47 583.91
  C 414.89 578.91 415.78 575.54 417.64 568.03
  Q 419.26 561.48 420.10 559.21
  C 421.36 555.78 423.86 548.96 425.09 543.83
  Q 425.86 540.61 428.47 532.71
  C 431.83 522.57 434.29 510.42 437.41 501.85
  Q 440.36 493.71 441.07 490.51
  Q 442.68 483.16 445.28 476.05
  Q 446.45 472.83 447.95 466.93
  Q 449.21 461.99 450.63 457.84
  Q 454.92 445.38 459.36 428.95
  C 460.01 426.55 461.10 423.91 462.03 421.08
  Q 462.15 420.70 463.16 420.59
  Z"
/>
<path fill="#1a1a19" d="
  M 481.95 399.17
  L 481.78 399.65
  A 0.51 0.51 0.0 0 1 480.82 399.67
  Q 480.47 398.78 479.24 394.80
  Q 478.22 391.51 476.03 387.23
  C 472.15 379.67 466.18 375.99 457.40 378.30
  A 3.81 3.74 -69.1 0 0 456.16 378.87
  Q 451.32 382.31 450.29 384.28
  Q 448.50 387.72 446.35 395.51
  Q 444.74 401.33 443.02 406.99
  C 439.48 418.69 437.55 426.28 434.16 436.82
  Q 432.18 442.98 430.98 447.64
  C 428.76 456.23 426.18 462.73 423.83 471.67
  Q 422.55 476.55 420.32 483.74
  C 417.58 492.60 416.26 495.89 414.79 502.41
  Q 413.77 506.96 413.00 509.06
  Q 409.84 517.74 407.98 525.32
  Q 407.59 526.90 406.59 526.45
  Q 407.48 522.74 408.57 519.06
  Q 421.17 476.53 445.90 393.10
  Q 447.48 387.77 448.06 386.37
  C 451.10 378.99 458.31 374.52 466.12 376.76
  C 476.03 379.61 478.94 390.67 481.95 399.17
  Z"
/>
<path fill="#fe3232" d="
  M 537.94 513.34
  C 539.44 521.31 533.97 524.54 527.15 522.92
  C 518.86 518.41 523.08 506.67 532.24 508.75
  Q 536.15 509.64 537.94 513.34
  Z"
/>
<path fill="#fe3232" d="
  M 635.30 521.09
  Q 632.15 525.52 629.22 529.47
  Q 628.62 530.27 627.12 530.12
  Q 627.06 529.69 626.31 529.48
  Q 624.55 527.01 621.87 525.92
  Q 615.38 523.25 608.48 524.60
  Q 604.46 525.37 603.39 526.85
  Q 599.02 532.83 605.16 537.70
  Q 610.38 539.21 622.41 542.11
  Q 630.97 544.17 636.72 551.87
  Q 636.81 554.07 637.18 556.18
  C 638.27 562.36 637.92 567.46 634.73 572.90
  C 631.15 579.01 622.93 581.93 616.00 582.04
  Q 606.00 582.21 596.40 578.66
  Q 590.83 575.66 587.14 570.46
  A 1.50 1.49 -43.2 0 1 587.20 568.64
  L 593.67 560.78
  A 0.89 0.89 0.0 0 1 595.05 560.78
  C 600.34 567.28 606.80 571.02 615.41 570.38
  C 622.54 569.85 626.03 564.99 623.58 558.07
  Q 620.88 554.65 616.80 553.68
  Q 607.92 551.56 599.46 549.20
  Q 587.46 542.72 588.81 529.75
  C 589.81 520.07 597.65 514.20 606.74 512.96
  Q 612.52 512.17 619.23 513.11
  Q 628.81 514.46 635.30 521.09
  Z"
/>
<path fill="#faa7a6" d="
  M 527.15 522.92
  C 533.97 524.54 539.44 521.31 537.94 513.34
  Q 543.40 515.74 542.34 521.27
  C 541.41 526.11 537.91 527.84 533.24 527.21
  Q 529.07 526.64 527.15 522.92
  Z"
/>
<path fill="#fe3232" d="
  M 513.74 516.81
  L 513.82 524.16
  A 0.84 0.84 0.0 0 1 512.98 525.01
  L 484.78 525.01
  A 0.56 0.56 0.0 0 0 484.22 525.57
  L 484.22 542.34
  A 0.58 0.57 0.5 0 0 484.79 542.91
  L 505.05 542.99
  L 510.46 543.09
  A 0.62 0.62 0.0 0 1 511.06 543.61
  Q 511.25 544.86 510.91 546.19
  L 511.31 553.57
  A 0.46 0.46 0.0 0 1 510.85 554.05
  L 485.05 554.05
  A 0.92 0.92 0.0 0 0 484.13 555.00
  Q 484.55 567.20 484.86 577.77
  Q 484.95 580.79 486.58 583.09
  A 0.40 0.39 82.6 0 1 486.12 583.69
  Q 482.12 582.17 478.68 582.87
  L 471.68 581.32
  A 0.96 0.96 0.0 0 1 470.93 580.38
  L 470.93 514.17
  A 0.37 0.36 90.0 0 1 471.29 513.80
  L 512.89 513.80
  A 0.67 0.67 0.0 0 1 513.54 514.30
  Q 513.87 515.51 513.74 516.81
  Z"
/>
<path fill="#faa7a6" d="
  M 505.05 542.99
  L 484.79 542.91
  A 0.58 0.57 0.5 0 1 484.22 542.34
  L 484.22 525.57
  A 0.56 0.56 0.0 0 1 484.78 525.01
  L 512.98 525.01
  A 0.84 0.84 0.0 0 0 513.82 524.16
  L 513.74 516.81
  Q 514.41 518.10 516.17 517.49
  A 1.40 1.40 0.0 0 1 518.02 518.81
  L 518.02 527.90
  A 1.18 1.18 0.0 0 1 516.84 529.08
  L 489.05 529.08
  A 0.55 0.54 -0.0 0 0 488.50 529.62
  L 488.50 541.39
  A 1.51 1.51 0.0 0 0 490.00 542.90
  L 505.05 542.99
  Z"
/>
<path fill="#fe3232" d="
  M 566.79 524.42
  L 566.63 529.14
  A 0.56 0.56 0.0 0 0 567.16 529.71
  L 569.01 529.80
  L 580.02 530.19
  A 0.57 0.56 88.9 0 1 580.56 530.71
  L 580.91 534.81
  L 581.10 539.86
  A 0.49 0.49 0.0 0 1 580.61 540.37
  L 566.86 540.37
  A 0.54 0.53 0.5 0 0 566.32 540.89
  Q 566.20 549.11 566.30 562.49
  C 566.33 566.09 566.75 569.40 570.45 570.39
  Q 574.43 571.41 577.85 569.00
  A 1.11 1.11 0.0 0 1 579.52 569.51
  L 581.23 573.83
  L 582.40 577.77
  A 0.96 0.95 66.3 0 1 581.98 578.86
  Q 574.98 583.07 566.76 581.62
  Q 564.52 581.22 562.44 581.19
  Q 553.69 575.82 553.65 566.51
  Q 553.59 551.60 553.33 540.92
  A 0.63 0.63 0.0 0 0 552.70 540.30
  L 546.33 540.30
  A 0.56 0.56 0.0 0 1 545.77 539.74
  L 545.77 530.55
  A 0.58 0.57 -0.0 0 1 546.35 529.98
  L 552.93 529.98
  A 0.62 0.62 0.0 0 0 553.55 529.36
  L 553.55 520.60
  A 0.68 0.68 0.0 0 1 554.12 519.93
  L 565.56 518.18
  A 0.57 0.56 -6.9 0 1 566.20 518.68
  L 566.79 524.42
  Z"
/>
<path fill="#faa7a6" d="
  M 627.12 530.12
  Q 628.62 530.27 629.22 529.47
  Q 632.15 525.52 635.30 521.09
  L 638.90 524.58
  A 0.84 0.83 -50.1 0 1 638.99 525.67
  L 633.32 533.52
  A 1.03 1.02 36.3 0 1 631.87 533.74
  L 627.12 530.12
  Z"
/>
<path fill="#faa7a6" d="
  M 569.01 529.80
  L 567.16 529.71
  A 0.56 0.56 0.0 0 1 566.63 529.14
  L 566.79 524.42
  Q 568.02 523.75 568.74 522.83
  A 0.64 0.64 0.0 0 1 569.89 523.22
  L 569.89 528.37
  A 0.26 0.25 -5.5 0 1 569.68 528.62
  Q 569.42 528.66 569.34 528.70
  A 0.64 0.64 0.0 0 0 568.95 529.39
  Q 568.98 529.57 569.01 529.80
  Z"
/>
<path fill="#faa7a6" d="
  M 626.31 529.48
  C 620.67 528.14 611.65 526.32 607.15 531.42
  Q 605.78 532.98 605.16 537.70
  Q 599.02 532.83 603.39 526.85
  Q 604.46 525.37 608.48 524.60
  Q 615.38 523.25 621.87 525.92
  Q 624.55 527.01 626.31 529.48
  Z"
/>
<path fill="#fe3232" d="
  M 692.53 540.09
  L 683.12 546.99
  Q 680.78 546.46 679.57 543.53
  Q 671.98 537.11 664.28 542.06
  C 658.07 546.05 658.59 557.03 660.25 563.25
  Q 660.97 565.96 663.49 568.26
  Q 664.03 568.75 664.28 568.50
  Q 664.52 569.23 664.84 569.40
  C 672.26 573.46 679.52 570.45 682.39 562.61
  A 0.57 0.56 25.3 0 1 683.21 562.32
  L 692.21 567.72
  Q 688.42 578.06 679.76 580.76
  Q 669.67 583.91 658.87 579.60
  Q 650.28 574.66 647.54 565.71
  C 645.16 557.97 645.57 548.47 649.40 540.97
  C 654.31 531.36 664.60 528.15 674.96 529.31
  C 681.50 530.05 685.92 532.29 689.77 537.24
  Q 691.13 538.98 692.53 540.09
  Z"
/>
<path fill="#fe3232" d="
  M 737.26 535.61
  Q 739.50 540.47 739.68 545.25
  Q 740.04 555.14 739.66 567.00
  Q 739.61 568.64 740.26 570.00
  A 1.27 1.26 -2.3 0 0 740.96 570.64
  Q 743.11 571.42 745.44 570.72
  L 746.34 575.44
  L 746.51 579.66
  A 0.58 0.57 -8.8 0 1 746.08 580.24
  Q 740.15 581.69 733.87 580.42
  Q 733.10 579.45 731.55 578.64
  L 728.67 574.02
  A 0.70 0.70 0.0 0 0 727.46 574.07
  Q 723.53 581.74 714.50 581.86
  Q 712.21 581.89 705.80 580.79
  Q 697.32 575.53 697.94 565.49
  Q 698.34 559.13 703.45 555.19
  C 708.08 551.62 716.65 550.82 722.15 549.58
  C 725.29 548.87 728.31 546.80 727.11 543.08
  C 726.44 539.84 722.18 538.92 719.49 539.16
  Q 711.23 539.90 706.06 545.89
  Q 705.39 546.60 704.01 545.57
  A 1.15 1.11 -89.0 0 1 703.74 545.28
  L 699.49 538.96
  A 0.89 0.88 -39.2 0 1 699.61 537.83
  Q 710.72 526.92 726.50 529.55
  Q 733.35 530.69 737.26 535.61
  Z
  M 715.02 572.04
  Q 726.42 574.12 727.73 561.77
  L 727.74 556.13
  A 0.32 0.31 -9.0 0 0 727.33 555.84
  Q 721.62 557.68 715.93 559.14
  Q 710.78 560.46 710.57 565.70
  Q 710.38 570.66 715.02 572.04
  Z"
/>
<path fill="#fe3232" d="
  M 799.30 537.34
  Q 799.80 540.05 800.27 542.62
  Q 800.78 545.37 800.85 547.93
  Q 801.50 570.24 801.54 577.00
  Q 801.57 581.36 801.87 581.93
  A 0.48 0.47 -13.9 0 1 801.45 582.62
  Q 800.52 582.63 799.67 582.12
  A 1.24 1.20 61.9 0 0 799.11 581.94
  L 791.19 581.27
  Q 789.76 581.41 788.52 580.88
  A 0.79 0.79 0.0 0 1 788.05 580.16
  Q 787.93 564.42 787.99 548.76
  Q 788.00 546.25 787.23 543.94
  Q 784.91 539.57 779.96 539.71
  Q 768.72 540.03 768.05 551.57
  Q 767.18 566.41 768.31 581.22
  A 0.36 0.36 0.0 0 1 767.93 581.61
  L 758.98 581.21
  L 756.01 581.07
  A 1.00 1.00 0.0 0 1 755.05 580.07
  L 755.05 530.45
  A 0.47 0.47 0.0 0 1 755.52 529.98
  L 766.90 529.98
  A 0.64 0.64 0.0 0 1 767.54 530.62
  L 767.54 537.11
  A 0.43 0.43 0.0 0 0 768.37 537.29
  L 769.29 535.26
  A 1.29 1.27 86.2 0 1 769.79 534.68
  C 772.46 532.99 774.68 530.94 777.75 529.99
  Q 782.47 528.55 787.48 529.31
  Q 795.10 530.48 799.30 537.34
  Z"
/>
<path fill="#fe3232" d="
  M 537.00 533.92
  L 537.03 580.80
  A 0.49 0.49 0.0 0 1 536.54 581.29
  L 527.95 581.23
  L 524.58 581.14
  A 0.52 0.52 0.0 0 1 524.07 580.62
  L 524.07 530.47
  A 0.48 0.48 0.0 0 1 524.55 529.99
  L 536.20 529.99
  A 0.61 0.61 0.0 0 1 536.81 530.57
  L 537.00 533.92
  Z"
/>
<path fill="#faa7a6" d="
  M 527.95 581.23
  L 536.54 581.29
  A 0.49 0.49 0.0 0 0 537.03 580.80
  L 537.00 533.92
  L 540.05 534.01
  A 0.75 0.75 0.0 0 1 540.77 534.61
  Q 541.18 536.59 541.17 538.50
  Q 541.05 555.65 541.03 564.66
  Q 541.01 572.09 540.87 574.33
  Q 540.50 580.74 540.82 584.02
  A 0.62 0.61 -4.5 0 1 540.24 584.69
  Q 535.10 585.02 530.07 584.11
  Q 527.79 583.70 527.95 581.23
  Z"
/>
<path fill="#faa7a6" d="
  M 570.45 570.39
  C 566.75 569.40 566.33 566.09 566.30 562.49
  Q 566.20 549.11 566.32 540.89
  A 0.54 0.53 0.5 0 1 566.86 540.37
  L 580.61 540.37
  A 0.49 0.49 0.0 0 0 581.10 539.86
  L 580.91 534.81
  Q 582.14 535.00 583.02 534.32
  A 1.06 1.06 0.0 0 1 584.73 535.15
  L 584.73 543.24
  A 0.76 0.76 0.0 0 1 583.97 544.00
  L 570.98 544.00
  A 0.62 0.62 0.0 0 0 570.36 544.62
  L 570.45 570.39
  Z"
/>
<path fill="#faa7a6" d="
  M 745.44 570.72
  Q 743.11 571.42 740.96 570.64
  A 1.27 1.26 -2.3 0 1 740.26 570.00
  Q 739.61 568.64 739.66 567.00
  Q 740.04 555.14 739.68 545.25
  Q 739.50 540.47 737.26 535.61
  Q 744.09 540.08 744.06 548.26
  Q 744.02 558.53 744.09 568.81
  A 1.23 1.23 0.0 0 0 744.41 569.61
  L 745.44 570.72
  Z"
/>
<path fill="#faa7a6" d="
  M 791.19 581.27
  L 799.11 581.94
  A 1.24 1.20 61.9 0 1 799.67 582.12
  Q 800.52 582.63 801.45 582.62
  A 0.48 0.47 -13.9 0 0 801.87 581.93
  Q 801.57 581.36 801.54 577.00
  Q 801.50 570.24 800.85 547.93
  Q 800.78 545.37 800.27 542.62
  Q 799.80 540.05 799.30 537.34
  Q 803.97 541.39 804.44 548.09
  Q 804.51 549.08 804.27 555.92
  C 804.16 559.07 803.94 563.15 803.48 566.31
  Q 802.25 574.96 803.68 582.78
  A 1.30 1.30 0.0 0 1 801.98 584.25
  Q 798.87 583.20 795.81 583.39
  A 2.87 2.67 50.2 0 1 794.80 583.26
  Q 792.84 582.62 791.19 581.27
  Z"
/>
<path fill="#faa7a6" d="
  M 727.11 543.08
  Q 721.92 543.00 717.37 544.73
  C 714.55 545.81 712.08 548.06 709.57 549.87
  A 0.94 0.93 -33.2 0 1 708.21 549.59
  L 706.06 545.89
  Q 711.23 539.90 719.49 539.16
  C 722.18 538.92 726.44 539.84 727.11 543.08
  Z"
/>
<path fill="#faa7a6" d="
  M 787.23 543.94
  Q 776.22 542.60 773.08 550.57
  Q 771.65 554.20 771.86 562.59
  Q 772.09 572.05 771.07 580.00
  Q 770.86 581.67 771.36 583.78
  A 0.95 0.94 -4.5 0 1 770.37 584.93
  L 759.78 584.13
  A 0.54 0.54 0.0 0 1 759.28 583.57
  Q 759.32 582.32 758.98 581.21
  L 767.93 581.61
  A 0.36 0.36 0.0 0 0 768.31 581.22
  Q 767.18 566.41 768.05 551.57
  Q 768.72 540.03 779.96 539.71
  Q 784.91 539.57 787.23 543.94
  Z"
/>
<path fill="#faa7a6" d="
  M 679.57 543.53
  Q 676.18 544.25 673.05 544.12
  A 2.53 2.12 33.3 0 0 672.36 544.20
  Q 665.73 545.98 664.37 552.26
  Q 663.15 557.95 663.55 561.00
  Q 664.03 564.75 664.28 568.50
  Q 664.03 568.75 663.49 568.26
  Q 660.97 565.96 660.25 563.25
  C 658.59 557.03 658.07 546.05 664.28 542.06
  Q 671.98 537.11 679.57 543.53
  Z"
/>
<path fill="#faa7a6" d="
  M 683.12 546.99
  L 692.53 540.09
  Q 694.84 541.88 695.40 544.28
  A 0.83 0.83 0.0 0 1 695.09 545.14
  L 687.28 550.85
  A 0.67 0.66 -38.4 0 1 686.38 550.75
  L 683.12 546.99
  Z"
/>
<path fill="#faa7a6" d="
  M 550.88 541.22
  Q 551.06 541.13 552.64 542.18
  A 0.68 0.68 0.0 0 1 552.84 543.11
  Q 552.76 543.24 552.00 543.60
  Q 551.24 543.95 551.09 543.93
  A 0.68 0.68 0.0 0 1 550.50 543.19
  Q 550.69 541.30 550.88 541.22
  Z"
/>
<path fill="#faa7a6" d="
  M 478.68 582.87
  Q 482.12 582.17 486.12 583.69
  A 0.40 0.39 82.6 0 0 486.58 583.09
  Q 484.95 580.79 484.86 577.77
  Q 484.55 567.20 484.13 555.00
  A 0.92 0.92 0.0 0 1 485.05 554.05
  L 510.85 554.05
  A 0.46 0.46 0.0 0 0 511.31 553.57
  L 510.91 546.19
  Q 512.22 547.27 513.24 546.80
  A 1.32 1.28 79.4 0 1 515.06 548.09
  Q 514.83 552.94 515.14 556.97
  A 0.76 0.76 0.0 0 1 514.38 557.79
  L 489.68 557.79
  A 1.62 1.62 0.0 0 0 488.06 559.46
  Q 488.33 568.38 487.21 578.76
  C 487.02 580.54 487.33 582.00 487.90 583.74
  A 0.83 0.82 -2.3 0 1 486.92 584.79
  L 478.68 582.87
  Z"
/>
<path fill="#faa7a6" d="
  M 623.58 558.07
  Q 621.92 558.03 617.75 556.97
  Q 611.80 555.44 605.86 553.92
  Q 601.88 552.89 599.46 549.20
  Q 607.92 551.56 616.80 553.68
  Q 620.88 554.65 623.58 558.07
  Z"
/>
<path fill="#faa7a6" d="
  M 596.40 578.66
  Q 606.00 582.21 616.00 582.04
  C 622.93 581.93 631.15 579.01 634.73 572.90
  C 637.92 567.46 638.27 562.36 637.18 556.18
  Q 636.81 554.07 636.72 551.87
  Q 643.91 558.10 641.47 570.25
  Q 640.08 577.11 635.62 580.60
  Q 629.46 585.41 622.26 585.82
  C 616.71 586.13 608.67 585.43 604.14 583.88
  Q 599.68 582.36 596.40 578.66
  Z"
/>
<path fill="#faa7a6" d="
  M 727.73 561.77
  Q 722.97 562.01 719.55 563.30
  Q 714.28 565.31 715.02 572.04
  Q 710.38 570.66 710.57 565.70
  Q 710.78 560.46 715.93 559.14
  Q 721.62 557.68 727.33 555.84
  A 0.32 0.31 -9.0 0 1 727.74 556.13
  L 727.73 561.77
  Z"
/>
<path fill="#f6f6f4" d="
  M 727.73 561.77
  Q 726.42 574.12 715.02 572.04
  Q 714.28 565.31 719.55 563.30
  Q 722.97 562.01 727.73 561.77
  Z"
/>
<path fill="#faa7a6" d="
  M 692.21 567.72
  Q 692.29 569.15 693.31 569.60
  Q 695.32 570.50 695.34 570.54
  Q 696.40 571.95 695.50 573.97
  C 690.83 584.42 680.86 587.04 670.01 585.43
  Q 662.86 584.37 658.87 579.60
  Q 669.67 583.91 679.76 580.76
  Q 688.42 578.06 692.21 567.72
  Z"
/>
<path fill="#faa7a6" d="
  M 562.44 581.19
  Q 564.52 581.22 566.76 581.62
  Q 574.98 583.07 581.98 578.86
  A 0.96 0.95 66.3 0 0 582.40 577.77
  L 581.23 573.83
  L 582.94 573.65
  A 0.76 0.75 76.3 0 1 583.72 574.13
  L 586.48 581.35
  A 0.94 0.93 -30.0 0 1 586.19 582.42
  Q 584.08 584.12 581.54 584.88
  Q 569.64 588.45 562.44 581.19
  Z"
/>
<path fill="#faa7a6" d="
  M 731.55 578.64
  Q 729.00 582.95 725.21 584.49
  Q 713.44 589.29 705.80 580.79
  Q 712.21 581.89 714.50 581.86
  Q 723.53 581.74 727.46 574.07
  A 0.70 0.70 0.0 0 1 728.67 574.02
  L 731.55 578.64
  Z"
/>
<path fill="#faa7a6" d="
  M 733.87 580.42
  Q 740.15 581.69 746.08 580.24
  A 0.58 0.57 -8.8 0 0 746.51 579.66
  L 746.34 575.44
  Q 747.52 576.34 748.01 575.34
  A 0.90 0.86 54.7 0 1 749.65 575.66
  Q 750.31 579.73 750.59 583.06
  A 0.71 0.71 0.0 0 1 750.13 583.79
  Q 739.70 587.62 733.87 580.42
  Z"
/>
</svg>
