<?xml version="1.0" standalone="no"?>
<!DOCTYPE svg PUBLIC "-//W3C//DTD SVG 20010904//EN"
 "http://www.w3.org/TR/2001/REC-SVG-20010904/DTD/svg10.dtd">
<svg version="1.0" xmlns="http://www.w3.org/2000/svg"
 width="200.000000pt" height="60.000000pt" viewBox="0 0 200.000000 60.000000"
 preserveAspectRatio="xMidYMid meet">

<g transform="translate(0.000000,60.000000) scale(0.100000,-0.100000)"
fill="#000000" stroke="none">
<path d="M335 484 c-21 -21 -15 -48 11 -52 23 -3 58 24 49 39 -15 23 -44 29
-60 13z"/>
<path d="M31 328 c1 -187 7 -232 35 -236 25 -4 29 8 33 88 1 30 6 59 11 63 4
5 35 11 69 14 56 5 62 8 59 27 -3 18 -11 22 -73 26 l-70 5 2 45 c1 25 2 48 2
53 1 4 35 7 77 7 72 0 75 1 72 23 -3 21 -8 22 -110 25 l-108 3 1 -143z"/>
<path d="M773 463 c-41 -8 -73 -48 -73 -93 0 -53 29 -82 104 -106 31 -10 64
-26 73 -37 16 -17 16 -21 2 -45 -20 -36 -49 -38 -110 -7 -55 27 -79 22 -79
-16 0 -30 45 -51 119 -57 78 -5 103 4 131 51 44 71 15 121 -90 163 -53 20 -72
33 -76 50 -3 13 -3 28 1 33 9 15 108 14 123 -1 10 -10 15 -10 22 2 17 27 11
41 -25 56 -33 13 -76 16 -122 7z"/>
<path d="M494 418 c-4 -13 -18 -36 -32 -53 l-24 -29 26 -9 c14 -5 26 -14 27
-20 1 -7 3 -46 5 -87 3 -66 7 -78 29 -98 30 -25 96 -30 114 -8 13 16 1 29 -40
45 -24 9 -27 16 -33 80 -7 70 -3 96 14 86 5 -3 21 -3 35 1 35 9 34 42 -2 50
-49 10 -53 13 -53 39 0 21 -5 25 -29 25 -22 0 -31 -6 -37 -22z"/>
<path d="M320 240 l0 -140 35 0 35 0 0 140 0 140 -35 0 -35 0 0 -140z"/>
<path d="M1090 371 c-36 -10 -70 -75 -70 -134 0 -59 21 -102 60 -122 59 -30
155 -12 166 32 10 36 -12 45 -55 22 -45 -24 -63 -24 -86 1 -22 25 -26 110 -6
134 15 18 81 22 98 5 14 -14 53 -2 53 15 0 38 -91 65 -160 47z"/>
<path d="M1384 371 c-42 -11 -54 -19 -54 -40 0 -28 8 -30 50 -14 23 9 50 13
65 9 25 -6 26 -9 13 -28 -7 -11 -35 -28 -62 -39 -60 -23 -86 -45 -86 -76 0
-27 17 -64 34 -75 19 -13 65 -9 98 8 29 15 34 15 59 0 50 -29 83 -14 56 27 -7
12 -17 54 -20 94 -9 95 -22 121 -66 133 -40 11 -43 11 -87 1z m79 -175 c-4
-50 -45 -74 -73 -41 -17 21 -9 48 20 62 37 19 55 12 53 -21z"/>
<path d="M1643 373 c-10 -3 -13 -41 -13 -139 l0 -134 29 0 c34 0 41 23 41 129
0 78 9 91 62 91 48 0 49 -4 56 -182 2 -35 4 -38 32 -38 l30 0 0 89 c0 48 -5
103 -11 122 -22 66 -69 85 -131 53 -18 -10 -33 -12 -37 -6 -8 12 -43 22 -58
15z"/>
</g>
</svg>
